<?xml version="1.0" encoding="UTF-8"?>
<svg xmlns="http://www.w3.org/2000/svg" viewBox="0 0 110 280" width="110" height="280">
  
  
  <rect x="0.6" y="0.6" width="108.8" height="278.8" fill="#fff" stroke="#111" stroke-width="1" rx="2"></rect>

  
  <rect x="0.6" y="0.6" width="108.8" height="22" fill="#111"></rect>
  <text x="55" y="15.5" fill="#fff" font-family="Helvetica, Arial, sans-serif" font-size="7" font-weight="700" letter-spacing="0.05em" text-anchor="middle">(4) DURACELL 5KWH</text>
  <text x="55" y="22" fill="#ccc" font-family="Helvetica, Arial, sans-serif" font-size="4.4" letter-spacing="0.04em" text-anchor="middle">20 kWh TOTAL</text>

  
  
  <g transform="translate(5, 30)">
    <rect width="100" height="54" rx="3" fill="#fafaf6" stroke="#444" stroke-width="0.6"></rect>
    <rect x="0" y="0" width="100" height="10" rx="3" fill="#222"></rect>
    <text x="50" y="7.5" fill="#fff" font-family="Helvetica, Arial, sans-serif" font-size="5" font-weight="700" text-anchor="middle">DURACELL 5KWH · MODULE 1</text>
    
    <g stroke="#bbb" stroke-width="0.4">
      <line x1="6" y1="18" x2="94" y2="18"></line>
      <line x1="6" y1="24" x2="94" y2="24"></line>
      <line x1="6" y1="30" x2="94" y2="30"></line>
      <line x1="6" y1="36" x2="94" y2="36"></line>
      <line x1="6" y1="42" x2="94" y2="42"></line>
    </g>
    <text x="50" y="50" fill="#666" font-family="Helvetica, Arial, sans-serif" font-size="4.6" text-anchor="middle">LFP · 51.2 V NOMINAL · 100 Ah</text>
  </g>

  
  <g transform="translate(5, 90)">
    <rect width="100" height="54" rx="3" fill="#fafaf6" stroke="#444" stroke-width="0.6"></rect>
    <rect x="0" y="0" width="100" height="10" rx="3" fill="#222"></rect>
    <text x="50" y="7.5" fill="#fff" font-family="Helvetica, Arial, sans-serif" font-size="5" font-weight="700" text-anchor="middle">DURACELL 5KWH · MODULE 2</text>
    <g stroke="#bbb" stroke-width="0.4">
      <line x1="6" y1="18" x2="94" y2="18"></line>
      <line x1="6" y1="24" x2="94" y2="24"></line>
      <line x1="6" y1="30" x2="94" y2="30"></line>
      <line x1="6" y1="36" x2="94" y2="36"></line>
      <line x1="6" y1="42" x2="94" y2="42"></line>
    </g>
    <text x="50" y="50" fill="#666" font-family="Helvetica, Arial, sans-serif" font-size="4.6" text-anchor="middle">LFP · 51.2 V NOMINAL · 100 Ah</text>
  </g>

  
  <g transform="translate(5, 150)">
    <rect width="100" height="54" rx="3" fill="#fafaf6" stroke="#444" stroke-width="0.6"></rect>
    <rect x="0" y="0" width="100" height="10" rx="3" fill="#222"></rect>
    <text x="50" y="7.5" fill="#fff" font-family="Helvetica, Arial, sans-serif" font-size="5" font-weight="700" text-anchor="middle">DURACELL 5KWH · MODULE 3</text>
    <g stroke="#bbb" stroke-width="0.4">
      <line x1="6" y1="18" x2="94" y2="18"></line>
      <line x1="6" y1="24" x2="94" y2="24"></line>
      <line x1="6" y1="30" x2="94" y2="30"></line>
      <line x1="6" y1="36" x2="94" y2="36"></line>
      <line x1="6" y1="42" x2="94" y2="42"></line>
    </g>
    <text x="50" y="50" fill="#666" font-family="Helvetica, Arial, sans-serif" font-size="4.6" text-anchor="middle">LFP · 51.2 V NOMINAL · 100 Ah</text>
  </g>

  
  <g transform="translate(5, 210)">
    <rect width="100" height="54" rx="3" fill="#fafaf6" stroke="#444" stroke-width="0.6"></rect>
    <rect x="0" y="0" width="100" height="10" rx="3" fill="#222"></rect>
    <text x="50" y="7.5" fill="#fff" font-family="Helvetica, Arial, sans-serif" font-size="5" font-weight="700" text-anchor="middle">DURACELL 5KWH · MODULE 4</text>
    <g stroke="#bbb" stroke-width="0.4">
      <line x1="6" y1="18" x2="94" y2="18"></line>
      <line x1="6" y1="24" x2="94" y2="24"></line>
      <line x1="6" y1="30" x2="94" y2="30"></line>
      <line x1="6" y1="36" x2="94" y2="36"></line>
      <line x1="6" y1="42" x2="94" y2="42"></line>
    </g>
    <text x="50" y="50" fill="#666" font-family="Helvetica, Arial, sans-serif" font-size="4.6" text-anchor="middle">LFP · 51.2 V NOMINAL · 100 Ah</text>
  </g>

  
  <rect x="0.6" y="266" width="108.8" height="13" fill="#fafaf6" stroke="#111" stroke-width="0.4"></rect>
  <text x="55" y="274.5" fill="#666" font-family="Helvetica, Arial, sans-serif" font-size="5" letter-spacing="0.04em" text-anchor="middle">UL 9540 · UL 1973</text>

  
  <g id="anchor-top" transform="translate(55, 0)"><circle r="0"></circle></g>
  <g id="anchor-bottom" transform="translate(55, 280)"><circle r="0"></circle></g>
  <g id="anchor-left" transform="translate(0, 140)"><circle r="0"></circle></g>
  <g id="anchor-right" transform="translate(110, 140)"><circle r="0"></circle></g>
</svg>