<?xml version="1.0" encoding="UTF-8"?>
<svg xmlns="http://www.w3.org/2000/svg" viewBox="0 0 80 50" width="80" height="50">
  
  
  <rect x="0.6" y="0.6" width="78.8" height="48.8" fill="#fff" stroke="#111" stroke-width="0.8" rx="1"></rect>

  
  <g fill="#eef3ff" stroke="#2a8c4a" stroke-width="0.25">
    
    <g>
      
      <rect x="4" y="10" width="7" height="4.2"></rect><rect x="11.5" y="10" width="7" height="4.2"></rect><rect x="19" y="10" width="7" height="4.2"></rect><rect x="26.5" y="10" width="7" height="4.2"></rect><rect x="34" y="10" width="7" height="4.2"></rect><rect x="41.5" y="10" width="7" height="4.2"></rect><rect x="49" y="10" width="7" height="4.2"></rect><rect x="56.5" y="10" width="7" height="4.2"></rect><rect x="64" y="10" width="7" height="4.2"></rect><rect x="71.5" y="10" width="4.5" height="4.2"></rect>
      
      <rect x="4" y="14.6" width="7" height="4.2"></rect><rect x="11.5" y="14.6" width="7" height="4.2"></rect><rect x="19" y="14.6" width="7" height="4.2"></rect><rect x="26.5" y="14.6" width="7" height="4.2"></rect><rect x="34" y="14.6" width="7" height="4.2"></rect><rect x="41.5" y="14.6" width="7" height="4.2"></rect><rect x="49" y="14.6" width="7" height="4.2"></rect><rect x="56.5" y="14.6" width="7" height="4.2"></rect><rect x="64" y="14.6" width="7" height="4.2"></rect><rect x="71.5" y="14.6" width="4.5" height="4.2"></rect>
      
      <rect x="4" y="19.2" width="7" height="4.2"></rect><rect x="11.5" y="19.2" width="7" height="4.2"></rect><rect x="19" y="19.2" width="7" height="4.2"></rect><rect x="26.5" y="19.2" width="7" height="4.2"></rect><rect x="34" y="19.2" width="7" height="4.2"></rect><rect x="41.5" y="19.2" width="7" height="4.2"></rect><rect x="49" y="19.2" width="7" height="4.2"></rect><rect x="56.5" y="19.2" width="7" height="4.2"></rect><rect x="64" y="19.2" width="7" height="4.2"></rect><rect x="71.5" y="19.2" width="4.5" height="4.2"></rect>
      
      <rect x="4" y="23.8" width="7" height="4.2"></rect><rect x="11.5" y="23.8" width="7" height="4.2"></rect><rect x="19" y="23.8" width="7" height="4.2"></rect><rect x="26.5" y="23.8" width="7" height="4.2"></rect><rect x="34" y="23.8" width="7" height="4.2"></rect><rect x="41.5" y="23.8" width="7" height="4.2"></rect><rect x="49" y="23.8" width="7" height="4.2"></rect><rect x="56.5" y="23.8" width="7" height="4.2"></rect><rect x="64" y="23.8" width="7" height="4.2"></rect><rect x="71.5" y="23.8" width="4.5" height="4.2"></rect>
      
      <rect x="4" y="28.4" width="7" height="4.2"></rect><rect x="11.5" y="28.4" width="7" height="4.2"></rect><rect x="19" y="28.4" width="7" height="4.2"></rect><rect x="26.5" y="28.4" width="7" height="4.2"></rect><rect x="34" y="28.4" width="7" height="4.2"></rect><rect x="41.5" y="28.4" width="7" height="4.2"></rect><rect x="49" y="28.4" width="7" height="4.2"></rect><rect x="56.5" y="28.4" width="7" height="4.2"></rect><rect x="64" y="28.4" width="7" height="4.2"></rect><rect x="71.5" y="28.4" width="4.5" height="4.2"></rect>
      
      <rect x="4" y="33" width="7" height="4.2"></rect><rect x="11.5" y="33" width="7" height="4.2"></rect><rect x="19" y="33" width="7" height="4.2"></rect><rect x="26.5" y="33" width="7" height="4.2"></rect><rect x="34" y="33" width="7" height="4.2"></rect><rect x="41.5" y="33" width="7" height="4.2"></rect><rect x="49" y="33" width="7" height="4.2"></rect><rect x="56.5" y="33" width="7" height="4.2"></rect><rect x="64" y="33" width="7" height="4.2"></rect><rect x="71.5" y="33" width="4.5" height="4.2"></rect>
    </g>
  </g>

  
  <rect x="0.6" y="0.6" width="78.8" height="7" fill="#111"></rect>
  <text x="40" y="5.6" fill="#fff" font-family="Helvetica, Arial, sans-serif" font-size="3.4" font-weight="700" letter-spacing="0.04em" text-anchor="middle">SERAPHIM SRP-380BMA-BG · 380W</text>

  
  <rect x="0.6" y="42.4" width="78.8" height="7" fill="#fafaf6" stroke="#111" stroke-width="0.4"></rect>
  <text x="40" y="47" fill="#444" font-family="Helvetica, Arial, sans-serif" font-size="3" letter-spacing="0.04em" text-anchor="middle">MONO PERC · 60-CELL · 1500 VDC</text>

  
  <g id="anchor-left" transform="translate(0, 25)"><circle r="0"></circle></g>
  <g id="anchor-right" transform="translate(80, 25)"><circle r="0"></circle></g>
</svg>